<svg width="47.99999999999999" height="50" xmlns="http://www.w3.org/2000/svg">
 <g>
  <title>Layer 1</title>
  <circle cx="24" cy="24" r="24" fill="#ff8000" id="svg_1"/>
  <path fill="#ffce00" d="m24,1.3a20.1,20.1 0 0 0 -20,20.1c0,1.1 0.1,2.1 0.2,3.2c2.6,-6.8 9.7,-11.7 18.1,-11.7a19.3,19.3 0 0 1 16.3,8.5l0.1,0a8.3,8.3 0 0 1 5.3,1.8a10.9,10.9 0 0 0 0.1,-1.8a20.1,20.1 0 0 0 -20.1,-20.1" id="svg_2"/>
  <path fill="#ff0024" d="m44,23.2a8.3,8.3 0 0 0 -5.3,-1.8l-0.1,0c-5.9,0 -12.1,5.1 -13.9,11.5a9.7,9.7 0 0 0 1.2,8.5l-1.9,0a20.2,20.2 0 0 1 -19.8,-16.8a18,18 0 0 0 -1,5.7a16.6,16.6 0 0 0 5.8,12.5a26.3,26.3 0 0 0 7.6,4a22.5,22.5 0 0 0 7.4,1.2a23.9,23.9 0 0 0 18,-8.2a22.4,22.4 0 0 0 3.8,-5.8c0.1,-0.4 0.3,-0.7 0.4,-1.1c1.1,-4.1 0.2,-7.6 -2.2,-9.7" id="svg_3"/>
  <path d="m133.1,30.5c-3.7,0 -5.4,-2 -5.4,-5.7l0,-23l-11.5,0l0,17.1a16.3,16.3 0 0 0 -29.6,0l0,-9.1l-11.3,0l0,16c0,2.9 -1.6,4.9 -4.1,4.9s-4.1,-2 -4.1,-4.9l0,-16l-11.4,0l0,16.2c0,9.9 6.1,16.1 15.5,16.1c7.6,0 13,-4.2 14.7,-11a16.4,16.4 0 0 0 30.9,0.3c1.7,7.3 7.2,10.5 14.6,10.5l2.9,0l0,-11.4l-1.2,0zm-31.7,0.2a4.9,4.9 0 1 1 4.9,-4.9a4.9,4.9 0 0 1 -4.9,4.9z" id="svg_4"/>
 </g>

</svg>