<svg xmlns="http://www.w3.org/2000/svg" viewBox="0 0 134.3 48">
  <defs/>
  <circle cx="24" cy="24" r="24" fill="#ff8000"/>
  <path fill="#ffce00" d="M24 1.3A20.1 20.1 0 004 21.4c0 1.1.1 2.1.2 3.2 2.6-6.8 9.7-11.7 18.1-11.7a19.3 19.3 0 0116.3 8.5h.1a8.3 8.3 0 015.3 1.8 10.9 10.9 0 00.1-1.8A20.1 20.1 0 0024 1.3"/>
  <path fill="#ff0024" d="M44 23.2a8.3 8.3 0 00-5.3-1.8h-.1c-5.9 0-12.1 5.1-13.9 11.5a9.7 9.7 0 001.2 8.5H24A20.2 20.2 0 014.2 24.6a18 18 0 00-1 5.7A16.6 16.6 0 009 42.8a26.3 26.3 0 007.6 4A22.5 22.5 0 0024 48a23.9 23.9 0 0018-8.2 22.4 22.4 0 003.8-5.8c.1-.4.3-.7.4-1.1 1.1-4.1.2-7.6-2.2-9.7"/>
  <path d="M133.1 30.5c-3.7 0-5.4-2-5.4-5.7v-23h-11.5v17.1a16.3 16.3 0 00-29.6 0V9.8H75.3v16c0 2.9-1.6 4.9-4.1 4.9s-4.1-2-4.1-4.9v-16H55.7V26c0 9.9 6.1 16.1 15.5 16.1 7.6 0 13-4.2 14.7-11a16.4 16.4 0 0030.9.3c1.7 7.3 7.2 10.5 14.6 10.5h2.9V30.5zm-31.7.2a4.9 4.9 0 114.9-4.9 4.9 4.9 0 01-4.9 4.9z"/>
</svg>